<svg fill="#0099FF" xmlns="http://www.w3.org/2000/svg" data-name="Layer 1" viewBox="0 0 100 100" x="0px" y="0px"><title>Resume</title><path d="M69.28,5H13.84V95H86.16V21.88ZM69,8.68,82.48,22.17H69ZM16.66,92.19V7.81H66.17V25H83.34v67.2Z"></path><path d="M54.47,45A6.05,6.05,0,0,0,63,53.6h0A6.05,6.05,0,0,0,54.47,45ZM61,51.61A3.24,3.24,0,1,1,61,47,3.24,3.24,0,0,1,61,51.61Z"></path><path d="M73.94,31.61c-7.4-.84-14.08.32-19.73,3.43a32.88,32.88,0,0,0-8.54,6.79H33.05a3,3,0,0,0-2.13.87L22.41,51a3,3,0,0,0,0,4.33l3.72,3.72a3.12,3.12,0,0,0,4.08.2,8.93,8.93,0,0,1,5.44-2.08c-.9,1.79-1.7,3.46-2.34,4.82l-.42.89,12.3,12.3.89-.42c1.4-.66,3.14-1.48,5-2.42a9.46,9.46,0,0,1-2.25,5.69,3,3,0,0,0,.2,4.08l3.54,3.54a3,3,0,0,0,4.31,0l8.51-8.51A3,3,0,0,0,66.24,75V62.4A32.86,32.86,0,0,0,73,53.86c3.11-5.68,4.27-12.32,3.43-19.74A2.83,2.83,0,0,0,73.94,31.61Zm-3.39,20.9a30.47,30.47,0,0,1-6.66,8.21l-.47.42V75a.24.24,0,0,1-.07.17l-8.5,8.5a.24.24,0,0,1-.33,0L51,80.15a.23.23,0,0,1,0-.31A13.06,13.06,0,0,0,53.84,70l-.15-2.16-1.91,1c-2.16,1.14-4.28,2.17-6,3l-9.51-9.51c.8-1.7,1.8-3.76,2.91-5.85l1-1.92L38,54.4c-.52,0-1,0-1.47,0a12.16,12.16,0,0,0-8.13,2.75.21.21,0,0,1-.31,0l-3.72-3.72a.23.23,0,0,1,0-.33l8.51-8.32a.23.23,0,0,1,.16-.07H46.92l.42-.47a30.49,30.49,0,0,1,8.22-6.67c5.15-2.82,11.26-3.87,18.07-3.1a0,0,0,0,1,0,0C74.43,41.27,73.39,47.35,70.56,52.52Z"></path></svg>