<svg fill="#0099FF" xmlns="http://www.w3.org/2000/svg" xmlns:xlink="http://www.w3.org/1999/xlink" version="1.1" x="0px" y="0px" viewBox="0 0 95 95" enable-background="new 0 0 95 95" xml:space="preserve"><path d="M74,0.6H21c0,0,0.2,4,0.2,4c0.4,8.3,1.5,16.8,4.7,24.5c3.2,7.7,8.4,13.6,15.2,18.4c0.1,0.1,0.3,0.2,0.4,0.3  c6.8,4.8,14,9,18.5,16.2c4.3,6.8,5.8,14.8,6.1,22.7H29.1c1.2-14.8,5.5-24.6,14.2-31.7c-2.4-1.4-4.6-2.8-6.6-4.4  c-3.9,3.5-6.9,7.6-9.3,12.2c-3.7,7.3-5.7,16.1-6.2,27.6l-0.2,4h53c0,0,0-3.8,0-3.8c0-8.4-1-17.1-4.4-24.9  c-3.3-7.7-8.9-13.4-15.8-18.2c-0.3-0.2-0.7-0.5-1-0.7c-6.5-4.4-13.9-8.7-18.1-15.7c-4-6.8-5.6-14.6-6.2-22.4h37.2  c-0.6,14.6-5,24.3-14.3,31.7c2.4,1.4,4.6,2.8,6.7,4.4c4-3.5,7.1-7.4,9.5-11.9c4-7.5,5.9-16.6,5.9-28.1V0.6H74z"></path></svg>